<?xml version="1.0" encoding="iso-8859-1"?>
<!-- Generator: Adobe Illustrator 19.0.0, SVG Export Plug-In . SVG Version: 6.00 Build 0)  -->
<svg version="1.1" id="Capa_1" xmlns="http://www.w3.org/2000/svg" xmlns:xlink="http://www.w3.org/1999/xlink" x="0px" y="0px"
	 viewBox="0 0 496 496" style="enable-background:new 0 0 496 496;" xml:space="preserve">
<circle style="fill:#B6C1CE;" cx="384" cy="112" r="104"/>
<circle style="fill:#ECECEC;" cx="384" cy="112" r="88"/>
<path style="fill:#FEA82F;" d="M216,136V88h-19.4c-1.88-6.64-4.48-12.968-7.784-18.872l13.696-13.696l-33.944-33.944l-13.696,13.696
	C148.968,31.88,142.64,29.28,136,27.4V8H88v19.4c-6.64,1.88-12.968,4.48-18.872,7.784L55.432,21.488L21.488,55.432l13.696,13.696
	C31.88,75.032,29.28,81.36,27.4,88H8v48h19.4c1.88,6.64,4.48,12.968,7.784,18.872l-13.696,13.696l33.944,33.944l13.696-13.696
	C75.032,192.12,81.36,194.72,88,196.6V216h48v-19.4c6.64-1.88,12.968-4.48,18.872-7.784l13.696,13.696l33.944-33.944l-13.696-13.696
	c3.304-5.904,5.904-12.232,7.784-18.872L216,136L216,136z M112,152c-22.088,0-40-17.912-40-40s17.912-40,40-40s40,17.912,40,40
	S134.088,152,112,152z"/>
<path style="fill:#FCD770;" d="M112,48c-35.344,0-64,28.656-64,64s28.656,64,64,64s64-28.656,64-64S147.344,48,112,48z M112,152
	c-22.088,0-40-17.912-40-40s17.912-40,40-40s40,17.912,40,40S134.088,152,112,152z"/>
<path style="fill:#FB5968;" d="M357.36,450.76c-3.288-11.52-12.744-20.24-24.496-22.584L272,416h-48l-60.864,12.176
	c-11.752,2.352-21.2,11.064-24.496,22.584L128,488h240L357.36,450.76z"/>
<path style="fill:#CD2C5A;" d="M332.864,428.176L272,416l14.056,9.376C307.792,439.864,322.88,462.392,328,488l0,0h40l-10.64-37.24
	C354.072,439.24,344.616,430.52,332.864,428.176z"/>
<path style="fill:#F9E0A6;" d="M224,408v12.8c0,10.6,10.744,19.2,24,19.2c13.256,0,24-8.6,24-19.2V408H224z"/>
<path style="fill:#D3A06C;" d="M200,240c10-14.992,26.824-24,44.848-24c45.92,0,83.152,37.232,83.152,83.152V336H168v-55.016
	C168,261.6,181.192,244.704,200,240z"/>
<path style="fill:#B27946;" d="M244.848,216c-3.176,0-6.288,0.376-9.36,0.92C274.216,222.504,304,255.728,304,296v40h24v-36.848
	C328,253.232,290.768,216,244.848,216z"/>
<g>
	<path style="fill:#F9E0A6;" d="M304,360L304,360c13.256,0,24-10.744,24-24l0,0c0-13.256-10.744-24-24-24l0,0H192l0,0
		c-13.256,0-24,10.744-24,24l0,0c0,13.256,10.744,24,24,24l0,0H304z"/>
	<path style="fill:#F9E0A6;" d="M192,312v40c0,30.928,25.072,56,56,56l0,0c30.928,0,56-25.072,56-56v-40l0,0
		c-20.768,0-40.984-6.736-57.6-19.2L240,288l-7.032,7.032C222.104,305.896,207.368,312,192,312L192,312z"/>
</g>
<path style="fill:#EABD8C;" d="M280,310v42c0,26.808-18.848,49.184-44,54.68c3.872,0.848,7.88,1.32,12,1.32
	c30.928,0,56-25.072,56-56v-40C295.632,312,290.352,312.232,280,310z"/>
<path d="M80,202.456V224h64v-21.544c3.2-1.128,6.32-2.416,9.352-3.848l15.216,15.216l45.248-45.248L198.6,153.352
	c1.44-3.024,2.728-6.144,3.848-9.344H224v-64h-21.544c-1.128-3.2-2.416-6.328-3.848-9.344l15.216-15.224l-45.248-45.248
	L153.36,25.408c-3.04-1.448-6.16-2.736-9.36-3.864V0H80v21.544c-3.2,1.128-6.32,2.416-9.352,3.848L55.432,10.176L10.176,55.432
	l15.216,15.224C23.96,73.672,22.672,76.8,21.544,80H0v64h21.544c1.128,3.2,2.416,6.328,3.848,9.344l-15.216,15.224l45.248,45.248
	L70.64,198.6C73.68,200.04,76.8,201.328,80,202.456z M55.432,191.192l-22.624-22.624l12.32-12.32l-2.952-5.28
	c-2.976-5.32-5.36-11.088-7.08-17.152L33.448,128H16V96h17.448l1.648-5.816c1.72-6.064,4.104-11.832,7.08-17.152l2.952-5.28
	l-12.32-12.32l22.624-22.624l12.32,12.312l5.28-2.952c5.32-2.976,11.088-5.352,17.152-7.072L96,33.448V16h32v17.448l5.824,1.648
	c6.064,1.72,11.832,4.096,17.152,7.072l5.28,2.952l12.32-12.312L191.2,55.432l-12.32,12.32l2.952,5.28
	c2.976,5.32,5.36,11.088,7.08,17.152l1.64,5.816H208v32h-17.448l-1.648,5.816c-1.72,6.064-4.104,11.832-7.08,17.152l-2.952,5.28
	l12.32,12.32l-22.624,22.624l-12.32-12.312l-5.28,2.952c-5.32,2.976-11.088,5.352-17.152,7.072L128,190.552V208H96v-17.448
	l-5.824-1.648c-6.064-1.72-11.832-4.096-17.152-7.072l-5.28-2.952L55.432,191.192z"/>
<path d="M112,160c26.472,0,48-21.528,48-48s-21.528-48-48-48s-48,21.528-48,48S85.528,160,112,160z M112,80
	c17.648,0,32,14.352,32,32s-14.352,32-32,32s-32-14.352-32-32S94.352,80,112,80z"/>
<path d="M324.872,418.416L280,409.44v-2.104c14.8-8.592,25.824-22.928,30.048-39.952C324.808,364.552,336,351.576,336,336v-36.84
	c0-50.272-40.888-91.16-91.16-91.16c-19.728,0-38.112,9.32-49.76,25.08c-20.8,6.568-35.08,25.84-35.08,47.904V336
	c0,15.576,11.192,28.552,25.952,31.392c4.224,17.024,15.248,31.36,30.048,39.952v2.104l-44.872,8.976
	c-20.648,4.128-37.072,19.272-42.856,39.528L117.392,496h261.216l-10.872-38.056C361.944,437.688,345.52,422.536,324.872,418.416z
	 M232,413.896c5.128,1.328,10.464,2.104,16,2.104c5.536,0,10.872-0.776,16-2.104V416c0,8.824-7.176,16-16,16s-16-7.176-16-16
	V413.896z M312,349.776v-27.544c4.76,2.776,8,7.88,8,13.776S316.76,347,312,349.776z M201.936,247.76l3.008-0.752l1.712-2.576
	c8.528-12.8,22.808-20.44,38.184-20.44C286.28,224,320,257.72,320,299.16v9.296c-4.728-2.76-10.144-4.456-16-4.456h-6.064
	c-19.752,0-38.312-7.688-52.28-21.656L240,276.688l-12.688,12.688C217.88,298.808,205.336,304,192,304
	c-5.856,0-11.272,1.696-16,4.448v-27.464C176,265.24,186.664,251.584,201.936,247.76z M176,336c0-5.896,3.24-11,8-13.776v27.544
	C179.24,347,176,341.896,176,336z M200,352v-32.536c14.584-1.752,28.08-8.232,38.624-18.776l1.624-1.616
	c15.656,13.136,35.136,20.408,55.752,20.848V352c0,26.472-21.528,48-48,48S200,378.472,200,352z M318.24,480l-6.488-25.936
	l-15.512,3.872L301.76,480H194.24l5.512-22.064l-15.512-3.872L177.76,480h-39.152l5.048-17.664
	c4.136-14.464,15.856-25.28,30.608-28.232l43.168-8.632C221.48,438.504,233.648,448,248,448c14.352,0,26.52-9.496,30.568-22.528
	l43.168,8.632c14.752,2.952,26.48,13.776,30.608,28.232L357.392,480H318.24z"/>
<path d="M384,0c-61.76,0-112,50.24-112,112s50.24,112,112,112s112-50.24,112-112S445.76,0,384,0z M479.592,120
	c-1.704,20.464-9.808,39.104-22.36,53.928l-16.664-16.672l-11.312,11.312l16.664,16.672c-14.816,12.552-33.464,20.656-53.928,22.36
	V184h-16v23.592c-20.464-1.704-39.112-9.808-53.928-22.36l16.664-16.672l-11.312-11.312l-16.664,16.672
	c-12.552-14.816-20.656-33.464-22.36-53.928H312v-16h-23.592c1.704-20.464,9.808-39.104,22.36-53.928l16.664,16.672l11.312-11.312
	L322.08,38.752c14.808-12.536,33.456-20.648,53.92-22.344V40h16V16.408c20.464,1.704,39.112,9.808,53.928,22.36L429.264,55.44
	l11.312,11.312L457.24,50.08c12.552,14.816,20.656,33.464,22.36,53.928H456v16h23.592V120z"/>
<polygon points="392,72 376,72 376,115.312 394.344,133.656 405.656,122.344 392,108.688 "/>
<path d="M416,424c0,7.512-3.584,14.688-9.592,19.2l-19.2,14.4l9.592,12.8l19.208-14.4C426.024,448.488,432,436.512,432,424V240h-16
	V424z"/>
<path d="M80,424V240H64v184c0,12.512,5.976,24.488,16,32l19.2,14.4l9.592-12.8L89.6,443.2C83.584,438.688,80,431.512,80,424z"/>
<rect x="96" y="328" width="16" height="88"/>
<rect x="384" y="328" width="16" height="88"/>
<rect x="384" y="296" width="16" height="16"/>
<rect x="96" y="296" width="16" height="16"/>
<g>
</g>
<g>
</g>
<g>
</g>
<g>
</g>
<g>
</g>
<g>
</g>
<g>
</g>
<g>
</g>
<g>
</g>
<g>
</g>
<g>
</g>
<g>
</g>
<g>
</g>
<g>
</g>
<g>
</g>
</svg>
